<svg width="24" height="24" fill="none" xmlns="http://www.w3.org/2000/svg"><path d="M2.721 2.571c-.207.105-.201-.018-.191 3.978l.01 3.729.091.091.091.091h7.556l.091-.091.091-.091V2.722l-.091-.091-.091-.091-3.729-.01c-2.941-.007-3.75.001-3.828.041m11 0c-.207.105-.201-.018-.191 3.978l.01 3.729.091.091.091.091h7.556l.091-.091.091-.091V2.722l-.091-.091-.091-.091-3.729-.01c-2.941-.007-3.75.001-3.828.041M9.5 6.5v3h-6l-.01-2.96c-.006-1.628-.002-2.983.008-3.01.016-.04.639-.048 3.011-.04L9.5 3.5v3m11 0v3h-6l-.01-2.96c-.006-1.628-.002-2.983.008-3.01.016-.04.639-.048 3.011-.04l2.991.01v3M2.721 13.571c-.207.105-.201-.018-.191 3.978l.01 3.729.091.091.091.091h7.556l.091-.091.091-.091v-7.556l-.091-.091-.091-.091-3.729-.01c-2.941-.007-3.75.001-3.828.041m11 0c-.207.105-.201-.018-.191 3.978l.01 3.729.091.091.091.091h7.556l.091-.091.091-.091v-7.556l-.091-.091-.091-.091-3.729-.01c-2.941-.007-3.75.001-3.828.041M9.5 17.5v3h-6l-.01-2.96c-.006-1.628-.002-2.983.008-3.01.016-.04.639-.048 3.011-.04l2.991.01v3m11 0v3h-6l-.01-2.96c-.006-1.628-.002-2.983.008-3.01.016-.04.639-.048 3.011-.04l2.991.01v3" fill-rule="evenodd" fill="#000"/></svg>