<svg version="1.1" xmlns="http://www.w3.org/2000/svg" width="32" height="32" viewBox="0 0 32 32">
<title>Send</title>
<path d="M15.84 8.941c-0.044 0.017-1.19 1.138-2.547 2.491-2.359 2.353-2.467 2.469-2.467 2.656 0 0.27 0.042 0.356 0.217 0.447 0.353 0.183 0.299 0.224 2.461-1.934l2.015-2.013v12.179l0.128 0.149c0.086 0.098 0.212 0.159 0.352 0.159s0.266-0.061 0.352-0.158l0-0 0.128-0.149v-12.179l2.015 2.013c2.162 2.158 2.108 2.117 2.461 1.934 0.175-0.091 0.217-0.177 0.217-0.447 0-0.187-0.109-0.304-2.467-2.661-2.51-2.509-2.6-2.587-2.867-2.487z"></path>
</svg>
