<!-- Generated by IcoMoon.io -->
<svg version="1.1" xmlns="http://www.w3.org/2000/svg" width="24" height="24" viewBox="0 0 24 24">
<title>user</title>
<path d="M11.213 2.579c-2.114 0.392-3.693 2.221-3.693 4.419 0 0.001 0 0.002 0 0.002v-0c-0 0.005-0 0.010-0 0.016 0 2.465 1.999 4.464 4.464 4.464 0.006 0 0.011 0 0.017-0h-0.001c0.005 0 0.010 0 0.016 0 2.465 0 4.464-1.999 4.464-4.464 0-0.006 0-0.011-0-0.017v0.001c0-0.003 0-0.006 0-0.008 0-2.204-1.592-4.035-3.688-4.409l-0.027-0.004c-0.405-0.071-1.159-0.071-1.552 0zM12.828 3.603c0.606 0.138 1.124 0.426 1.605 0.893 0.706 0.683 1.056 1.514 1.056 2.504s-0.35 1.821-1.056 2.504c-0.69 0.669-1.472 0.985-2.433 0.985-0.99 0-1.821-0.35-2.504-1.056-0.669-0.69-0.985-1.472-0.985-2.433 0-0.99 0.35-1.821 1.056-2.504 0.887-0.86 2.035-1.174 3.261-0.893zM7.213 14.579c-1.652 0.31-2.969 1.486-3.476 3.029l-0.009 0.032c-0.19 0.596-0.214 0.881-0.2 2.329 0.012 1.301 0.013 1.309 0.103 1.4 0.077 0.077 0.133 0.091 0.369 0.091s0.292-0.014 0.369-0.091c0.090-0.090 0.091-0.104 0.117-1.48 0.023-1.219 0.036-1.429 0.109-1.718 0.329-1.276 1.318-2.26 2.572-2.577l0.025-0.005 0.348-0.089h8.92l0.348 0.089c1.279 0.322 2.268 1.306 2.592 2.557l0.005 0.025c0.073 0.289 0.086 0.499 0.109 1.718 0.026 1.376 0.027 1.39 0.117 1.48 0.077 0.077 0.133 0.091 0.369 0.091s0.292-0.014 0.369-0.091c0.090-0.091 0.091-0.099 0.103-1.4 0.014-1.45-0.010-1.734-0.2-2.329-0.514-1.584-1.843-2.764-3.48-3.057l-0.027-0.004c-0.466-0.082-9.101-0.081-9.552 0z"></path>
</svg>
